<svg width="20" height="20" viewBox="0 0 20 20" fill="none" xmlns="http://www.w3.org/2000/svg">
<path d="M12.4067 16.1087C12.5358 16.2238 12.7389 16.1853 12.8169 16.031L18.8434 4.11135C19.1574 3.49023 18.9876 2.73369 18.4382 2.30643C18.1029 2.04574 17.6706 1.94452 17.2545 2.02931L1.21094 5.29895C0.99951 5.34204 0.926821 5.60719 1.08672 5.75207L4.43262 8.78384C4.51802 8.86123 4.64381 8.87408 4.7431 8.81557L5.73718 8.22974C5.85191 8.16213 5.8682 8.00267 5.76951 7.91326L4.38068 6.65495C4.22077 6.51007 4.29346 6.24489 4.50491 6.20182L14.2294 4.22062C14.4479 4.17611 14.5611 4.47119 14.369 4.58431L5.67575 9.70219C5.57528 9.76134 5.51359 9.86923 5.51359 9.98582V17.0542C5.51359 17.2745 5.7679 17.3974 5.94048 17.2605L8.87917 14.9306C8.97517 14.8545 8.97942 14.7103 8.88806 14.6286L8.01971 13.8528C7.94804 13.7888 7.84068 13.7856 7.7654 13.8454L7.37662 14.1538C7.24719 14.2565 7.0564 14.1643 7.0564 13.9991V11.7784C7.0564 11.6078 7.25803 11.5175 7.38531 11.631L12.4067 16.1087ZM16.0681 5.37316C16.238 5.27314 16.4335 5.4565 16.3445 5.63245L12.3442 13.544C12.2661 13.6983 12.063 13.7368 11.934 13.6217L8.27503 10.3595C8.14181 10.2407 8.16287 10.0266 8.31669 9.93601L16.0681 5.37316Z" fill="white"/>
</svg>
